<?xml version="1.0" encoding="UTF-8" standalone="no" ?>
<!DOCTYPE svg PUBLIC "-//W3C//DTD SVG 1.1//EN" "http://www.w3.org/Graphics/SVG/1.1/DTD/svg11.dtd">
<svg xmlns="http://www.w3.org/2000/svg" xmlns:xlink="http://www.w3.org/1999/xlink" version="1.1" width="540" height="540" viewBox="0 0 1080 1080">
<desc>RAEN builds and creates smart contracts, frontends with React, indexing with subgraphs, and off-chain storage with ipfs or arweave</desc>
<style>
text {
  font-weight: 600;
}
text, rect {
  fill: black;
}
.reverse {
  fill: white;
}
.bracket {
  font-weight: 300;
}
@media (prefers-color-scheme: dark) {
  text {
    font-weight: 200;
  }
  text, rect {
    fill: white;
  }
  .reverse {
    fill: black;
  }
}
</style>
<g transform="matrix(1 0 0 1 131.71 540)" id="RAEN"  >
		<text font-family="Helvetica, sans-serif" font-size="80" ><tspan x="-107.92" y="25.13" >RAEN</tspan></text>
</g>
<g transform="matrix(1 0 0 5.72 280.38 540.39)" id="{"  >
		<text font-family="Helvetica,sans-serif" class="bracket" font-size="190" ><tspan x="-32" y="52.83" >{</tspan></text>
</g>
<g transform="matrix(1 0 0 1 691.41 887.79)" id="smart-contracts"  >
		<text font-family="Helvetica,sans-serif" font-size="40" ><tspan x="-375.97" y="12.57" >smart contracts</tspan></text>
</g>
<g transform="matrix(4.33 0 0 -1.87 475.61 961.45)" id="build-bg"  >
<rect style="stroke: white; stroke-width: 0;        " vector-effect="non-scaling-stroke"  x="-37.46" y="-19.415" rx="0" ry="0" width="74.92" height="38.83" />
</g>
<g transform="matrix(1 0 0 1 378.23 963.44)" id="build-fg" >
		<text font-family="Helvetica,sans-serif" font-size="40" class="reverse" ><tspan x="-51.97" y="12.57" >build</tspan></text>
</g>
<g transform="matrix(5.13 0 0 -1.87 852.29 960.86)" id="create-bg"  >
<rect style="stroke: white; stroke-width: 0;        " vector-effect="non-scaling-stroke"  x="-37.46" y="-19.415" rx="0" ry="0" width="74.92" height="38.83" />
</g>
<g transform="matrix(1 0 0 1 725.63 962.85)" id="create-fg" >
		<text font-family="Helvetica,sans-serif" font-size="40" class="reverse" ><tspan x="-55.96" y="12.57" >create</tspan></text>
</g>
<g transform="matrix(1 0 0 1 690.71 649.32)" id="indexing">
		<text font-family="Helvetica,sans-serif" font-size="40" ><tspan x="-375.97" y="12.57" >indexing</tspan></text>
</g>
<g transform="matrix(9.71 0 0 -1.87 676.53 722.98)" id="subgraph-bg"  >
<rect style="stroke: white; stroke-width: 0;        " vector-effect="non-scaling-stroke"  x="-37.46" y="-19.415" rx="0" ry="0" width="74.92" height="38.83" />
</g>
<g transform="matrix(1 0 0 1 406.74 724.97)" id="subgraph-fg" >
		<text font-family="Helvetica,sans-serif" font-size="40" class="reverse" ><tspan x="-81.18" y="12.57" >subgraph</tspan></text>
</g>
<g transform="matrix(1 0 0 1 690 385.49)" id="storage">
		<text font-family="Helvetica,sans-serif" font-size="40" ><tspan x="-375.97" y="12.57" >storage</tspan></text>
</g>
<g transform="matrix(4.33 0 0 -1.87 474.19 459.15)" id="ipfs-bg"  >
<rect style="stroke: white; stroke-width: 0;        " vector-effect="non-scaling-stroke"  x="-37.46" y="-19.415" rx="0" ry="0" width="74.92" height="38.83" />
</g>
<g transform="matrix(1 0 0 1 376.82 461.14)" id="ipfs-fg">
		<text font-family="Helvetica,sans-serif" font-size="40" class="reverse" ><tspan x="-51.97" y="12.57" >ipfs</tspan></text>
</g>
<g transform="matrix(5.13 0 0 -1.87 850.88 458.56)" id="arweave-bg"  >
<rect style="stroke: white; stroke-width: 0;        " vector-effect="non-scaling-stroke"  x="-37.46" y="-19.415" rx="0" ry="0" width="74.92" height="38.83" />
</g>
<g transform="matrix(1 0 0 1 750.81 460.55)" id="arweave-fg">
		<text font-family="Helvetica,sans-serif" font-size="40" class="reverse" ><tspan x="-82.56" y="12.57" >arweave</tspan></text>
</g>
<g transform="matrix(1 0 0 1 689.29 110.96)" id="frontend">
		<text font-family="Helvetica,sans-serif" font-size="40" ><tspan x="-375.97" y="12.57" >frontend</tspan></text>
</g>
<g transform="matrix(9.79 0 0 -1.87 677.93 184.62)" id="react-bg" >
<rect style="stroke: white; stroke-width: 0;        " vector-effect="non-scaling-stroke"  x="-37.46" y="-19.415" rx="0" ry="0" width="74.92" height="38.83" />
</g>
<g transform="matrix(1 0 0 1 515.76 186.61)" id="react-fg">
		<text font-family="Helvetica,sans-serif" font-size="40" class="reverse" ><tspan x="-191.62" y="12.57" >react</tspan></text>
</g>
</svg>
